<svg width="210" height="160" fill="none" xmlns="http://www.w3.org/2000/svg"><path d="M33.663 69a2 2 0 0 1 2-2H52.9v8.889H35.663a2 2 0 0 1-2-2V69ZM88 73.889a2 2 0 0 1-2 2H68.763V67H86a2 2 0 0 1 2 2v4.889Z" fill="#000" fill-opacity=".04"/><path fill-rule="evenodd" clip-rule="evenodd" d="M36.7 76.915h16.2v10.598l4.64-3.217 3.291 3.217 3.29-3.217 4.642 3.217V76.915h15.884v30.056a.34.34 0 0 1-.337.342H37.037a.34.34 0 0 1-.337-.342V76.915Zm4.725 26.027h9.247v-6.198h-9.247v6.198Z" fill="#000" fill-opacity=".04"/><path fill-rule="evenodd" clip-rule="evenodd" d="M53.913 67H67.75v18.977l-3.46-2.79-3.459 2.79-3.46-2.79-3.459 2.79V67Z" fill="#000" fill-opacity=".04"/><path fill-rule="evenodd" clip-rule="evenodd" d="m67.011 63.782-.187.428-5.76 13.137a.756.756 0 0 0 .703 1.053h35.851a.77.77 0 0 0 .704-.456L109.698 52h-37.52l-1.654 3.771-3.513 8.011Z" fill="#fff"/><path clip-rule="evenodd" d="m67.011 63.782-.187.428-5.76 13.137a.756.756 0 0 0 .703 1.053h35.851a.77.77 0 0 0 .704-.456L109.698 52h-37.52l-1.654 3.771-3.513 8.011Z" stroke="#333"/><path fill-rule="evenodd" clip-rule="evenodd" d="M72.49 80.6V52h55.812v55H73.491a1 1 0 0 1-1-1V80.6ZM165.509 52h-37.207v55h36.207a1 1 0 0 0 1-1V52Z" fill="#fff"/><path fill-rule="evenodd" clip-rule="evenodd" d="m163.089 55.796 2.053 4.78v21.375h-26.735a.744.744 0 0 1-.682-.45l-8.984-20.339v-8.805h6.302l28.046 3.44ZM72.49 52.55l-3.282 7.15 3.009 17.6.273-5.5V52.55Zm0 50.785h93.019V107H72.491v-3.665Z" fill="#EEE" style="mix-blend-mode:multiply"/><path clip-rule="evenodd" d="M72.49 80.6V52h55.812v55H72.491V80.6ZM165.509 52h-37.207v55h37.207V52Z" stroke="#333"/><path fill-rule="evenodd" clip-rule="evenodd" d="M176.233 78.4h-35.851a.769.769 0 0 1-.704-.455L128.302 52h37.52l11.114 25.347a.755.755 0 0 1-.703 1.053Z" fill="#fff"/><path d="M176.233 78.4h-35.851a.769.769 0 0 1-.704-.455L128.302 52h37.52l11.114 25.347a.755.755 0 0 1-.703 1.053" stroke="#333"/><mask id="a" fill="#fff"><path fill-rule="evenodd" clip-rule="evenodd" d="M107.509 67.4V52H92.736v15.4l3.74-3.65 3.611 3.65 3.802-3.65 3.62 3.65Zm-29 33.621h14.992V91.05H78.508v9.971Z"/></mask><path fill-rule="evenodd" clip-rule="evenodd" d="M107.509 67.4V52H92.736v15.4l3.74-3.65 3.611 3.65 3.802-3.65 3.62 3.65Zm-29 33.621h14.992V91.05H78.508v9.971Z" fill="#FFE600"/><path d="M107.509 52h2v-2h-2v2Zm0 15.4-1.419 1.408 3.419 3.448V67.4h-2ZM92.736 52v-2h-2v2h2Zm0 15.4h-2v4.746l3.397-3.315-1.397-1.431Zm3.74-3.65 1.421-1.406-1.397-1.412-1.421 1.387 1.397 1.432Zm3.611 3.65-1.421 1.407 1.385 1.4 1.421-1.364-1.385-1.443Zm3.802-3.65 1.42-1.408-1.385-1.396-1.42 1.362 1.385 1.443Zm-10.388 37.271v2h2v-2h-2Zm-14.992 0h-2v2h2v-2Zm14.992-9.971h2v-2h-2v2Zm-14.992 0v-2h-2v2h2Zm27-39.05v15.4h4V52h-4Zm-12.773 2h14.773v-4H92.736v4Zm2 3.004V52h-4v5.004h4Zm0 10.396V57.003h-4V67.4h4Zm.343-5.08-3.74 3.649 2.794 2.862 3.74-3.649-2.794-2.863Zm6.43 3.673-3.612-3.65-2.843 2.815 3.612 3.649 2.843-2.814Zm.995-3.685-3.802 3.65 2.77 2.885 3.802-3.65-2.77-2.885Zm6.425 3.684-3.62-3.65-2.84 2.817 3.621 3.65 2.839-2.817Zm-15.428 33.03H78.508v3.999H93.5v-4Zm-2-7.972v9.971h4V91.05h-4Zm-12.992 2h14.992v-4H78.508v4Zm2 7.971V91.05h-4v9.971h4Z" fill="#fff" mask="url(#a)"/><path stroke="#333" d="M93.5 101.021H78.509V91.05H93.5z"/><path clip-rule="evenodd" d="M107.509 52v15.4l-3.62-3.65-3.802 3.65-3.611-3.65-3.74 3.65V52h14.773Zm43.774 43.45h3.83V91.6h-3.83v3.85Zm0 6.6h3.83V98.2h-3.83v3.85Zm9.849-6.6h-3.83V91.6h3.83v3.85Zm-2.347 4.24h-1.483V98.2h1.483v1.49Zm2.347 2.36h-1.535v-1.543h1.535v1.543Z" stroke="#333"/><path stroke="#000" stroke-opacity=".8" d="M27 107.5h156"/></svg>