<?xml version="1.0" encoding="iso-8859-1"?>
<!-- Uploaded to: SVG Repo, www.svgrepo.com, Generator: SVG Repo Mixer Tools -->
<svg version="1.1" id="Layer_1" xmlns="http://www.w3.org/2000/svg" xmlns:xlink="http://www.w3.org/1999/xlink" 
	 viewBox="0 0 512 512" xml:space="preserve">
<path style="fill:#F4F4F4;" d="M371.441,0H12.292C7.865,0,4.276,3.589,4.276,8.017v487.415c0,4.427,3.589,8.017,8.017,8.017H294.48
	c2.126,0,4.165-0.844,5.668-2.348l76.96-76.96c1.504-1.503,2.348-3.542,2.348-5.668V8.017C379.457,3.589,375.868,0,371.441,0z"/>
<g>
	<path style="fill:#E9E9E9;" d="M12.292,0C7.865,0,4.276,3.589,4.276,8.017v487.415c0,4.427,3.589,8.017,8.017,8.017h194.116
		L47.988,0H12.292z"/>
	<path style="fill:#E9E9E9;" d="M294.659,426.844v76.596c2.023-0.046,4.001-0.85,5.491-2.34l76.96-76.96
		c1.446-1.446,2.249-3.351,2.337-5.312h-76.771C298.248,418.828,294.659,422.417,294.659,426.844z"/>
</g>
<path style="fill:#918F90;" d="M439.85,41.687c-4.427,0-8.017-3.589-8.017-8.017V8.017c0-4.427,3.589-8.017,8.017-8.017
	c4.427,0,8.017,3.589,8.017,8.017V33.67C447.866,38.098,444.277,41.687,439.85,41.687z"/>
<path style="fill:#FFD791;" d="M481.224,98.494L447.02,30.085c-2.896-5.793-11.445-5.794-14.34,0l-34.205,68.409
	c-1.243,2.485-1.111,5.436,0.351,7.8c1.461,2.363,4.041,3.802,6.82,3.802h68.409c2.778,0,5.358-1.439,6.82-3.802
	C482.335,103.931,482.468,100.979,481.224,98.494z"/>
<rect x="397.628" y="102.079" style="fill:#BDBCBC;" width="84.443" height="246.914"/>
<path style="fill:#6DDAE1;" d="M397.628,469.779c0,23.28,18.941,42.221,42.221,42.221c23.28,0,42.221-18.941,42.221-42.221V332.96
	h-84.443V469.779z"/>
<rect x="397.628" y="102.079" style="fill:#A7A6A6;" width="26.188" height="246.914"/>
<g>
	<path style="fill:#4FC4D4;" d="M397.628,332.96v136.818c0,17.607,10.836,32.724,26.188,39.05V332.96H397.628z"/>
	<path style="fill:#4FC4D4;" d="M499.708,460.693h-25.653c-4.427,0-8.017-3.589-8.017-8.017c0-4.427,3.589-8.017,8.017-8.017h17.637
		V281.653c0-4.427,3.589-8.017,8.017-8.017s8.017,3.589,8.017,8.017v171.023C507.724,457.104,504.135,460.693,499.708,460.693z"/>
</g>
<path style="fill:#FF8C78;" d="M248.842,104.962l-51.307-51.307c-3.131-3.131-8.207-3.131-11.337,0l-51.307,51.307
	c-1.504,1.503-2.348,3.542-2.348,5.668v102.614c0,4.427,3.589,8.017,8.017,8.017h34.205c4.427,0,8.017-3.589,8.017-8.017v-51.841
	h18.171v51.841c0,4.427,3.589,8.017,8.017,8.017h34.205c4.427,0,8.017-3.589,8.017-8.017V110.63
	C251.19,108.504,250.346,106.465,248.842,104.962z"/>
<path style="fill:#DF7A6E;" d="M134.891,104.962c-1.504,1.503-2.348,3.542-2.348,5.668v102.614c0,4.427,3.589,8.017,8.017,8.017
	h17.637V81.657L134.891,104.962z"/>
<g>
	<path style="fill:#BDBCBC;" d="M311.582,281.119H140.56c-4.427,0-8.017-3.589-8.017-8.017c0-4.427,3.589-8.017,8.017-8.017h171.023
		c4.427,0,8.017,3.589,8.017,8.017C319.599,277.53,316.01,281.119,311.582,281.119z"/>
	<path style="fill:#BDBCBC;" d="M311.582,349.528H140.56c-4.427,0-8.017-3.589-8.017-8.017c0-4.427,3.589-8.017,8.017-8.017h171.023
		c4.427,0,8.017,3.589,8.017,8.017C319.599,345.939,316.01,349.528,311.582,349.528z"/>
	<path style="fill:#BDBCBC;" d="M243.173,417.937H140.56c-4.427,0-8.017-3.589-8.017-8.017c0-4.427,3.589-8.017,8.017-8.017h102.614
		c4.427,0,8.017,3.589,8.017,8.017C251.19,414.348,247.601,417.937,243.173,417.937z"/>
</g>
<g>
	<path style="fill:#6DDAE1;" d="M89.253,298.221c13.851,0,25.119-11.268,25.119-25.119s-11.268-25.119-25.119-25.119
		s-25.119,11.268-25.119,25.119C64.134,286.953,75.402,298.221,89.253,298.221z"/>
	<path style="fill:#6DDAE1;" d="M89.253,316.392c-13.851,0-25.119,11.268-25.119,25.119c0,13.851,11.268,25.119,25.119,25.119
		s25.119-11.268,25.119-25.119C114.372,327.661,103.103,316.392,89.253,316.392z"/>
	<path style="fill:#6DDAE1;" d="M89.253,384.802c-13.851,0-25.119,11.268-25.119,25.119s11.268,25.119,25.119,25.119
		s25.119-11.268,25.119-25.119S103.103,384.802,89.253,384.802z"/>
</g>
</svg>