<svg width="143" height="105" viewBox="0 0 143 105" fill="none" xmlns="http://www.w3.org/2000/svg"><path fill-rule="evenodd" clip-rule="evenodd" d="M69.3411 11.3387C75.2722 18.3267 86.0948 26.6599 106.001 26.3188C127.37 25.9526 150.825 42.5676 133.153 69.177C114.03 97.9718 87.271 103.883 73.8888 104.849C44.5566 106.966 21.6933 82.7415 15.7284 61.3264C10.3749 42.108 16.3877 22.0479 29.7318 10.3462C42.6819 -1.01139 60.0242 0.359534 69.3411 11.3387" fill="black" fill-opacity="0.07"></path><path d="M47.5635 56.7487C43.3629 55.5301 38.4372 58.4012 37.4176 62.6563C37.0234 64.3309 37.1098 66.2102 36.1114 67.6048C34.5796 69.7483 31.3349 69.6456 29.0949 71.0293C26.4575 72.647 25.595 76.5999 27.3155 79.1684C28.0863 80.326 29.3438 81.359 29.3194 82.7447C29.289 84.5282 27.1651 85.6646 26.922 87.4349C26.706 89.0199 28.2182 90.4571 29.8101 90.6868C31.402 90.9165 32.985 90.2409 34.3895 89.449C35.7939 88.657 37.15 87.7349 38.72 87.3405C40.4408 86.9046 42.2386 87.2025 44.0148 87.0477C48.26 86.6817 52.0058 83.82 54.2891 80.2344C56.5723 76.6488 57.6262 72.3936 58.2755 68.1874" fill="white"></path><path d="M47.5635 56.7487C43.3629 55.5301 38.4372 58.4012 37.4176 62.6563C37.0234 64.3309 37.1098 66.2102 36.1114 67.6048C34.5796 69.7483 31.3349 69.6456 29.0949 71.0293C26.4575 72.647 25.595 76.5999 27.3155 79.1684C28.0863 80.326 29.3438 81.359 29.3194 82.7447C29.289 84.5282 27.1651 85.6646 26.922 87.4349C26.706 89.0199 28.2182 90.4571 29.8101 90.6868C31.402 90.9165 32.985 90.2409 34.3895 89.449C35.7939 88.657 37.15 87.7349 38.72 87.3405C40.4408 86.9046 42.2386 87.2025 44.0148 87.0477C48.26 86.6817 52.0058 83.82 54.2891 80.2344C56.5723 76.6488 57.6262 72.3936 58.2755 68.1874" stroke="#333333" stroke-width="0.389923" stroke-miterlimit="10"></path><mask id="path-4-inside-1_981_33433" fill="white"><path d="M48.6828 60.7198C45.1889 59.6094 41.0376 62.1084 40.3732 65.7042C39.9665 67.9001 40.5076 70.6838 38.6651 71.9363C37.4117 72.7896 35.6481 72.423 34.3396 73.201C32.6133 74.2406 32.633 76.9774 33.9602 78.4905C35.2874 80.0035 37.4491 80.4789 39.4795 80.4882C46.4625 80.5141 53.1253 75.2932 54.7773 68.5056"></path></mask><path d="M48.6828 60.7198C45.1889 59.6094 41.0376 62.1084 40.3732 65.7042C39.9665 67.9001 40.5076 70.6838 38.6651 71.9363C37.4117 72.7896 35.6481 72.423 34.3396 73.201C32.6133 74.2406 32.633 76.9774 33.9602 78.4905C35.2874 80.0035 37.4491 80.4789 39.4795 80.4882C46.4625 80.5141 53.1253 75.2932 54.7773 68.5056" fill="#EEEEEE"></path><path d="M40.3732 65.7042L40.8243 65.7878L40.8244 65.7876L40.3732 65.7042ZM38.6651 71.9363L38.4072 71.5568L38.4069 71.557L38.6651 71.9363ZM34.3396 73.201L34.1051 72.8066L34.1029 72.808L34.3396 73.201ZM39.4795 80.4882L39.4774 80.947L39.4778 80.947L39.4795 80.4882ZM48.8218 60.2826C46.9289 59.681 44.8816 60.0624 43.2307 61.0538C41.58 62.0452 40.282 63.6726 39.9221 65.6208L40.8244 65.7876C41.1288 64.14 42.2387 62.72 43.7032 61.8405C45.1675 60.961 46.9428 60.6482 48.5438 61.1571L48.8218 60.2826ZM39.9221 65.6206C39.8147 66.2004 39.7711 66.8116 39.7358 67.4008C39.7 67.9995 39.6729 68.5716 39.6026 69.1151C39.4614 70.2055 39.1609 71.0445 38.4072 71.5568L38.9231 72.3157C40.0119 71.5756 40.362 70.3965 40.5126 69.2329C40.5881 68.6495 40.6171 68.0356 40.6518 67.4556C40.6871 66.8661 40.7284 66.3059 40.8243 65.7878L39.9221 65.6206ZM38.4069 71.557C37.8804 71.9155 37.2316 72.0286 36.4561 72.143C35.7188 72.2518 34.8523 72.3624 34.1051 72.8067L34.5741 73.5954C35.1353 73.2617 35.8049 73.1666 36.59 73.0508C37.3367 72.9406 38.1965 72.8104 38.9233 72.3155L38.4069 71.557ZM34.1029 72.808C33.0745 73.4273 32.5964 74.5349 32.5465 75.6476C32.4967 76.7581 32.8666 77.9394 33.6153 78.793L34.3051 78.1879C33.7266 77.5284 33.423 76.5848 33.4632 75.6887C33.5032 74.7949 33.8785 74.0143 34.5763 73.5941L34.1029 72.808ZM33.6153 78.793C35.0737 80.4557 37.4034 80.9375 39.4774 80.947L39.4816 80.0294C37.4948 80.0203 35.501 79.5513 34.3051 78.1879L33.6153 78.793ZM39.4778 80.947C46.6733 80.9737 53.5209 75.6077 55.223 68.6141L54.3315 68.3971C52.7296 74.9788 46.2517 80.0545 39.4812 80.0294L39.4778 80.947Z" fill="white" mask="url(#path-4-inside-1_981_33433)"></path><path d="M48.6828 60.7198C45.1889 59.6094 41.0376 62.1084 40.3732 65.7042C39.9665 67.9001 40.5076 70.6838 38.6651 71.9363C37.4117 72.7896 35.6481 72.423 34.3396 73.201C32.6133 74.2406 32.633 76.9774 33.9602 78.4905C35.2874 80.0035 37.4491 80.4789 39.4795 80.4882C46.4625 80.5141 53.1253 75.2932 54.7773 68.5056" stroke="#333333" stroke-width="0.389923" stroke-miterlimit="10"></path><path d="M25.3638 91.4767C24.923 90.634 23.5167 90.5685 22.6395 90.9408C21.7692 91.3268 21.1604 92.0964 20.5583 92.8111C19.9631 93.5395 19.2788 94.2612 18.3671 94.5307C17.3936 94.8141 16.3641 94.5077 15.3557 94.4825C14.3404 94.4435 13.141 94.892 12.9374 95.8871C12.8152 96.4635 12.9811 97.0668 13.3799 97.5186C13.7718 97.9225 14.2252 98.2439 14.7402 98.4828C16.0722 99.0836 17.4929 99.4166 18.9472 99.4751C20.8405 99.519 22.6495 98.6782 23.833 97.2077C24.9891 95.751 26.568 93.1889 25.3432 91.4699" fill="white"></path><path d="M25.3638 91.4767C24.923 90.634 23.5167 90.5685 22.6395 90.9408C21.7692 91.3268 21.1604 92.0964 20.5583 92.8111C19.9631 93.5395 19.2788 94.2612 18.3671 94.5307C17.3936 94.8141 16.3641 94.5077 15.3557 94.4825C14.3404 94.4435 13.141 94.892 12.9374 95.8871C12.8152 96.4635 12.9811 97.0668 13.3799 97.5186C13.7718 97.9225 14.2252 98.2439 14.7402 98.4828C16.0722 99.0836 17.4929 99.4166 18.9472 99.4751C20.8405 99.519 22.6495 98.6782 23.833 97.2077C24.9891 95.751 26.568 93.1889 25.3432 91.4699" stroke="#333333" stroke-width="0.389923" stroke-miterlimit="10"></path><path d="M56.1012 58.6522L56.1013 58.6525C58.903 63.7743 64.3981 67.6254 71.2504 67.1178C69.1269 68.5471 67.3257 69.7575 66.017 70.6363C65.2879 71.126 64.7116 71.5127 64.3176 71.777L63.867 72.0792L63.7512 72.1569L63.751 72.157C56.6401 73.4186 50.8892 69.6875 48.0799 64.5307C45.5216 59.8202 45.4451 53.9675 48.4896 49.892L48.4992 49.8849L48.6058 49.8062L49.0204 49.4998C49.3832 49.2319 49.914 48.8399 50.5865 48.3436C51.7736 47.4675 53.402 46.2664 55.326 44.8492C53.3213 49.0709 53.7412 54.3217 56.1012 58.6522Z" fill="#EEEEEE" stroke="white" stroke-width="0.448433"></path><path fill-rule="evenodd" clip-rule="evenodd" d="M52.4434 69.9159C55.4681 72.1021 59.383 73.2155 63.8164 72.4163C63.8164 72.4163 67.2037 70.1458 72.0961 66.852C67.8624 67.3925 64.1147 66.2508 61.1618 64.1371C57.1723 66.8227 53.6107 69.1543 52.4434 69.9159ZM61.1428 64.1235C59.5499 64.3132 59.0686 63.6793 59.2444 62.5235C59.8329 63.1021 60.467 63.6383 61.1428 64.1235Z" fill="#EEEEEE" style="mix-blend-mode: multiply;"></path><path d="M56.298 58.5449C53.8033 53.967 53.5123 48.3646 55.9762 44.0918C51.4438 47.4294 48.3299 49.7313 48.3299 49.7313C45.2014 53.8933 45.2871 59.8585 47.8829 64.6378C50.7374 69.8776 56.5956 73.6749 63.8368 72.3694C63.8368 72.3694 67.2242 70.0989 72.1165 66.8051C64.9548 67.7194 59.1838 63.8203 56.298 58.5449Z" stroke="#333333" stroke-width="0.389923" stroke-miterlimit="10"></path><path d="M89.8789 54.7788C92.729 60.5786 89.9557 66.3929 85.6436 71.2628C81.2835 76.1869 75.4143 80.0663 72.4848 81.8423C71.8447 82.2299 71.0286 81.7565 71.0447 81.0151L71.0447 81.0138L71.2653 67.3917L89.8789 54.7788Z" fill="#EEEEEE" stroke="white" stroke-width="0.448433"></path><path d="M71.1115 67.3575L90.0327 54.5362C90.5965 55.6272 90.963 56.7183 91.1591 57.803L71.0622 70.4033L71.1115 67.3575Z" fill="#EEEEEE" style="mix-blend-mode: multiply;"></path><path d="M71.043 67.2715L70.8205 81.0102C70.8005 81.9294 71.8104 82.5129 72.601 82.034C78.4715 78.4751 96.1707 66.4605 89.9642 54.4501L71.043 67.2715Z" stroke="#333333" stroke-width="0.389923" stroke-miterlimit="10"></path><path d="M73.9089 30.8399L55.5111 44.3705L42.8145 36.8462C42.8144 36.8462 42.8143 36.8461 42.8142 36.846C42.107 36.4235 42.0575 35.4056 42.7236 34.9064C49.8537 29.5675 57.743 28.5832 63.861 28.9377C66.9194 29.115 69.5316 29.6267 71.3786 30.094C72.3019 30.3275 73.0335 30.5499 73.5335 30.7136C73.6785 30.761 73.8039 30.8035 73.9089 30.8399Z" fill="#EEEEEE" stroke="white" stroke-width="0.448433"></path><path d="M74.3798 30.7719C74.3798 30.7719 56.961 23.9655 42.5892 34.7269C41.7978 35.32 41.8526 36.533 42.6996 37.0387L55.5244 44.639L74.3798 30.7719Z" stroke="#333333" stroke-width="0.389923" stroke-miterlimit="10"></path><path d="M122.993 10.3236C110.003 6.66317 99.9224 12.546 96.9729 14.3884C94.0373 16.2249 55.5227 44.6387 55.5227 44.6387C52.3942 48.8007 52.48 54.7658 55.0757 59.5452C57.9302 64.7849 63.7885 68.5823 71.0296 67.2768C71.0296 67.2768 109.53 41.5362 114.686 37.0906C124.354 28.6006 125.554 18.3862 125.547 13.6893C125.555 12.1243 124.509 10.759 122.993 10.3236Z" fill="white"></path><path d="M75.5087 29.6301C75.0608 33.2826 75.5234 37.0889 77.052 40.7233C79.7838 47.2181 85.303 51.6786 91.6246 53.3295C91.6821 53.2728 91.7454 53.2299 91.7948 53.1928" stroke="#333333" stroke-width="0.389923" stroke-miterlimit="10"></path><path d="M125.328 13.7019L125.328 13.7026C125.335 18.3623 124.145 28.4987 114.55 36.9291C114.545 36.9328 114.54 36.9368 114.534 36.9412C114.514 36.9553 114.49 36.9729 114.464 36.9933C108.254 35.3357 102.842 30.9357 100.155 24.5471C98.6577 20.987 98.1884 17.2474 98.614 13.6803C102.72 11.3655 111.738 7.38299 122.931 10.5384C124.353 10.9469 125.33 12.2254 125.328 13.7019Z" fill="#EEEEEE" stroke="white" stroke-width="0.448433"></path><path fill-rule="evenodd" clip-rule="evenodd" d="M60.0689 64.9084C64.5557 61.9145 101.912 36.9596 106.758 32.782C116.425 24.292 117.626 14.0776 117.618 9.3807C117.619 9.30031 117.616 9.22046 117.611 9.14123C119.336 9.31419 121.133 9.64238 122.989 10.1654C124.506 10.6008 125.551 11.9662 125.543 13.5311C125.551 18.228 124.35 28.4424 114.682 36.9324C109.526 41.378 71.0258 67.1186 71.0258 67.1186C66.7931 67.8818 63.0329 66.9013 60.0689 64.9084Z" fill="#EEEEEE" style="mix-blend-mode: multiply;"></path><path d="M122.992 10.3228C111.626 7.11817 102.488 11.2219 98.4052 13.5409C97.9515 17.1796 98.4199 20.9997 99.9485 24.634C102.68 31.1289 108.2 35.5894 114.521 37.2402C114.579 37.1835 114.642 37.1407 114.691 37.1036C124.359 28.6136 125.56 18.3992 125.552 13.7023C125.555 12.1235 124.509 10.7582 122.992 10.3228Z" stroke="#333333" stroke-width="0.389923" stroke-miterlimit="10"></path><path d="M63.9265 66.8176L65.9675 65.4062L73.5024 60.2365L98.3714 43.1894C103.213 39.852 107.848 36.6824 112.012 33.7439C112.532 33.3951 113.027 33.0244 113.504 32.6122C113.961 32.1921 114.431 31.7996 114.874 31.3853C115.746 30.5958 116.566 29.7628 117.316 28.8781C118.678 27.2809 119.861 25.531 120.816 23.6654C122.24 20.9033 123.258 17.987 123.875 14.9301C124.132 13.6838 124.274 12.4367 124.444 11.178" stroke="#333333" stroke-width="0.389923" stroke-miterlimit="10"></path><path d="M122.993 10.3236C110.003 6.66317 99.9224 12.546 96.9729 14.3884C94.0373 16.2249 55.5227 44.6387 55.5227 44.6387C52.3942 48.8007 52.48 54.7658 55.0757 59.5452C57.9302 64.7849 63.7885 68.5823 71.0296 67.2768C71.0296 67.2768 109.53 41.5362 114.686 37.0906C124.354 28.6006 125.554 18.3862 125.547 13.6893C125.555 12.1243 124.509 10.759 122.993 10.3236Z" stroke="#333333" stroke-width="0.389923" stroke-miterlimit="10"></path><path d="M49.7058 61.6887C49.6636 61.5874 49.6282 61.4993 49.601 61.4302L74.9524 44.008C74.9526 44.0079 74.9528 44.0078 74.953 44.0076C75.6805 43.5151 76.6556 43.6354 77.2608 44.278C77.3184 44.344 77.3759 44.4166 77.4199 44.49L77.4198 44.49L77.4243 44.497C77.9543 45.3116 77.7173 46.3919 76.9142 46.9173C73.805 48.9407 67.4522 53.0723 61.8052 56.7262C58.9815 58.5532 56.3346 60.2606 54.358 61.5251C53.3696 62.1575 52.5493 62.6788 51.9584 63.0489C51.6629 63.234 51.4255 63.3808 51.2536 63.4845C51.1675 63.5365 51.0988 63.577 51.048 63.606C51.0225 63.6205 51.0025 63.6315 50.9877 63.6393C50.9778 63.6444 50.9722 63.6471 50.97 63.6482C50.9583 63.6518 50.9335 63.6547 50.8813 63.6269C50.8203 63.5944 50.7438 63.5302 50.655 63.4284C50.4783 63.2257 50.2947 62.9226 50.1255 62.5967C49.958 62.2738 49.8111 61.9415 49.7058 61.6887Z" fill="#EEEEEE" stroke="white" stroke-width="0.448433"></path><path d="M74.8266 43.8224L49.3284 61.3455C49.3284 61.3455 50.349 64.1202 51.0516 63.8572C51.624 63.6327 70.8185 51.1518 77.0367 47.1051C77.9423 46.5128 78.2104 45.2941 77.6122 44.3747C77.5577 44.2838 77.4894 44.1987 77.4269 44.1274C76.7487 43.4043 75.6492 43.265 74.8266 43.8224Z" stroke="#333333" stroke-width="0.389923" stroke-miterlimit="10"></path><circle r="3.66945" transform="matrix(-0.907128 -0.420855 -0.420855 0.907128 90.5537 33.9142)" stroke="#333333" stroke-width="0.389923"></circle></svg>