<svg width="215" height="105" fill="none" xmlns="http://www.w3.org/2000/svg"><path fill="#1E1E1E" d="M0 0h215v105H0z"/><path fill="#fff" d="M0 0h215v105H0z"/><path fill-rule="evenodd" clip-rule="evenodd" d="M40.587 35.73h3.229v3.287h-3.229V35.73Zm0 15.57h3.229v3.289h-3.229V51.3ZM86.46 34.396h3.228v3.288H86.46v-3.288Zm28.002 7.715h3.228v3.288h-3.228V42.11Zm0 5.903h3.228V51.3h-3.228v-3.288Zm10.182-23.186h3.228v3.288h-3.228v-3.288ZM143.591 8.69h3.229v3.288h-3.229V8.69Zm0 10.096h3.229v3.288h-3.229v-3.288Zm7.55 29.626h3.228V51.7h-3.228v-3.288Zm29.586-19.132h3.227v3.287h-3.227V29.28Zm0 12.276h3.227v3.288h-3.227v-3.288Zm-29.586-4.184h3.228v3.288h-3.228v-3.288Zm38.635-16.543h-16.218l.508 40.8h-11.87V27.241h-5.385V2.109h-19.234v33.358h-3.846V11.621l-24.617 9.66v9.649h-5.385v-4.831H79.111l-.228 15.393h-4.208l-.18-29.87H56.802L57 26.938h-6.154l-.199-11.758h-7.693V8.77H31.116l.176 34.247-17.217.189v17.123h-10.1v25.685h207.051v-29.11h-12.625v-17.98h-8.625V20.83Z" fill="#000" fill-opacity=".04"/><path d="M117.445 79.586h11.938v8.585h-11.938v-8.585Z" fill="#fff"/><path d="M113.663 16.876a6.262 6.262 0 0 1 6.257-6.266h62.981a6.262 6.262 0 0 1 6.257 6.266v57.395a6.262 6.262 0 0 1-6.257 6.266H119.92a6.262 6.262 0 0 1-6.257-6.266V16.876Z" fill="#EDEDED"/><path d="m31.518 28.412 2.575-1.975c.219-.168.487-.26.764-.26h53.752c.267 0 .529.087.744.246l2.698 1.99c.32.236.51.61.51 1.01v12.905c0 .76.676 1.328 1.437 1.343 4.39.085 3.588 4.294 3.464 9.303-.079 3.18-1.777 4.156-3.312 4.28-.813.065-1.618.63-1.64 1.445-.253 9.033-.063 24.505 2.501 24.919 2.457.397 1.404 2.092.34 3.125-.212.208-.503.31-.8.31h-.994c-.584 0-1.09.403-1.153.982a14.838 14.838 0 0 0 .157 4.24c.38 2.015-.664 3.618-1.45 4.39-.197.194-.47.282-.747.282h-5.155c-2.614 0-3.085-1.832-2.995-2.749v-5.89c0-.693-.561-1.255-1.254-1.255H41.81c-.693 0-1.255.561-1.255 1.254v5.891c0 1.365-1.14 2.254-1.906 2.63a1.059 1.059 0 0 1-.568.09c-1.432-.133-4.172-.278-5.694.029-1.634.33-2.042-2.978-2.042-4.672l.439-3.806c.109-.947-.28-1.653-1.22-1.817-.382-.066-.843-.16-1.397-.286-3.157-.72-1.64-2.296-.28-3.135.18-.111.391-.163.604-.163h.755a1.1 1.1 0 0 0 1.099-1.1V57.686a.59.59 0 0 0-.59-.589.59.59 0 0 1-.395-.153l-.834-.757a1.255 1.255 0 0 0-.844-.326h-.357c-.25 0-.493-.075-.7-.214l-1.171-.788a1.255 1.255 0 0 1-.555-1.04V47.65c0-.115.017-.23.048-.342l.7-2.47c.046-.163.125-.316.232-.448l.687-.847c.238-.293.596-.464.974-.464h2.231c.693 0 1.255-.562 1.255-1.255V29.408c0-.39.181-.759.49-.996ZM118.11 47.43l4.83-24.8a1.262 1.262 0 0 1 1.232-1.028h54.846c.599 0 1.113.43 1.23 1.028l4.83 24.8c.016.082.024.165.024.248v24.846c0 .406.191.788.513 1.029l.769.574c.322.24.513.623.513 1.03v2.16a1.3 1.3 0 0 1-.199.689l-1.225 1.944a1.25 1.25 0 0 1-1.056.587h-61.155a1.22 1.22 0 0 1-.24-.024l-4.328-.86a1.258 1.258 0 0 1-.884-.686l-1.314-2.7a1.291 1.291 0 0 1 .168-1.393l1.122-1.347c.193-.23.3-.523.3-.826V47.68c0-.084.008-.167.024-.249Z" fill="#fff"/><path d="M35.385 34.923a3.765 3.765 0 0 1 3.764-3.765h44.47a3.765 3.765 0 0 1 3.765 3.765v24.202a2.51 2.51 0 0 1-2.51 2.51h-46.98a2.51 2.51 0 0 1-2.51-2.51V34.923Z" fill="#FFE600"/><path fill-rule="evenodd" clip-rule="evenodd" d="M31.4 31.034c0-2.216 1.785-4.017 3.98-4.017h10.705a.822.822 0 0 0 .069.003h41.615c2.195 0 3.979 1.801 3.979 4.016v51.546H62.61a.757.757 0 0 0-.04 0H31.4V31.033Zm62.006.002v11.549h.995a3.995 3.995 0 0 1 3.98 4.016v7.196a3.995 3.995 0 0 1-3.98 4.017h-.995v24.768h1.335c1.505 0 2.487 1.267 2.487 2.511 0 1.52-1.255 2.51-2.487 2.51h-1.334v6.652c.194 2.037-1.57 3.725-3.481 3.725h-4.808c-1.95 0-3.647-1.714-3.647-3.682l-.001-6.694-37.785-.001h-2.17v6.652c.194 2.037-1.57 3.725-3.481 3.725h-4.808c-1.95 0-3.647-1.714-3.647-3.682l-.001-6.695h-1.163c-1.505 0-2.488-1.267-2.488-2.511 0-1.52 1.256-2.51 2.488-2.51h1.328V57.813h-.996a3.995 3.995 0 0 1-3.98-4.017V46.6a3.995 3.995 0 0 1 3.98-4.016h.996V31.033c0-3.14 2.527-5.69 5.637-5.69h12.536c.023 0 .046.002.069.004h39.784c3.111 0 5.637 2.55 5.637 5.69ZM94.74 85.93H28.415a.837.837 0 0 1 0-1.675h2.108a.78.78 0 0 0 .097 0h64.121a.837.837 0 0 1 0 1.675Zm-11.613 1.674h8.621v6.724l.005.063c.105.953-.771 1.915-1.828 1.915h-4.808c-1.034 0-1.99-.964-1.99-2.008v-6.694ZM29.576 56.14h-.829a2.33 2.33 0 0 1-2.321-2.343v-7.196a2.33 2.33 0 0 1 2.321-2.343h.83V56.14Zm64.825 0a2.33 2.33 0 0 0 2.322-2.343v-7.196a2.33 2.33 0 0 0-2.322-2.343h-.83v11.883h.83ZM31.237 94.299l-.001-6.694h8.62v6.694c0 .031.003.062.006.093.105.953-.771 1.915-1.828 1.915h-4.808c-1.034 0-1.99-.964-1.99-2.008ZM80.82 29.865h4.63c2.008 0 3.481 1.612 3.481 3.514v27.949c0 1.076-.821 2.008-1.99 2.008H42.674a.87.87 0 0 0-.04 0h-6.59a1.974 1.974 0 0 1-1.989-2.007V33.38a3.467 3.467 0 0 1 3.48-3.514H80.82Zm-.384-1.672a.88.88 0 0 1 .04-.001h4.974c2.965 0 5.14 2.403 5.14 5.187v27.949c0 1.935-1.502 3.681-3.648 3.681H44.395l-.04.001h-8.311a3.64 3.64 0 0 1-3.648-3.681l-.001-27.949a5.133 5.133 0 0 1 5.14-5.187h42.901ZM36.289 72.036a.873.873 0 0 1-.08.003h-.662v4.185h12.86c-.409-2.338-2.49-4.185-4.902-4.185h-3.98a.869.869 0 0 1-.079-.003h-3.157Zm5.601-1.67h1.615c3.608 0 6.633 3.052 6.633 6.695a.833.833 0 0 1-.83.836h-14.59a.833.833 0 0 1-.83-.836v-5.858c0-.463.372-.837.83-.837h1.235a.804.804 0 0 1 .08-.004h5.777c.027 0 .054.001.08.004Zm9.761-22.626a.824.824 0 0 1 1.168-.11l11.605 9.707a.842.842 0 0 1 .11 1.178.824.824 0 0 1-1.167.11L51.76 48.92a.842.842 0 0 1-.11-1.179Zm2.988-3.408a.824.824 0 0 0-1.168.107.843.843 0 0 0 .107 1.179l8.63 7.149a.824.824 0 0 0 1.167-.108.842.842 0 0 0-.107-1.178l-8.629-7.15Zm15.918 9.599a.824.824 0 0 1 1.168-.107l1.989 1.672c.352.296.4.824.106 1.179a.824.824 0 0 1-1.168.107l-1.989-1.672a.842.842 0 0 1-.106-1.18Zm-21.21-19.514a.824.824 0 0 0-1.17.094.842.842 0 0 0 .094 1.18l20.227 17.404c.349.3.872.258 1.17-.093a.843.843 0 0 0-.094-1.18L49.346 34.417Zm12.745 7.308a.824.824 0 0 1 1.165-.128l7.626 6.193c.357.29.414.817.127 1.177a.824.824 0 0 1-1.166.127l-7.626-6.193a.842.842 0 0 1-.126-1.176Zm12.82 34.499h6.484a.91.91 0 0 1 .055-.002h5.777a.91.91 0 0 1 .055.002h.489v-4.185h-7.958c-2.411 0-4.493 1.847-4.902 4.185Zm9.047 1.673.054-.001h2.377a.905.905 0 0 0 .055.001h2.156a.833.833 0 0 0 .829-.837v-5.858a.833.833 0 0 0-.83-.836h-8.786c-3.609 0-6.633 3.052-6.633 6.695 0 .462.371.836.83.836h9.948Zm40.092-54.91a.625.625 0 0 0-.614.506l-4.833 24.38a.625.625 0 0 0-.012.121v24.598c0 .446-.158.878-.446 1.218l-1.125 1.324a.63.63 0 0 0-.084.684l1.315 2.655c.086.175.25.3.441.338l4.329.845a.61.61 0 0 0 .12.012h61.155a.625.625 0 0 0 .527-.29l1.225-1.91a.627.627 0 0 0 .1-.339v-2.124c0-.2-.095-.387-.256-.506l-.769-.564a1.884 1.884 0 0 1-.77-1.517V47.994a.624.624 0 0 0-.011-.122l-4.83-24.38a.628.628 0 0 0-.615-.505h-54.847Zm-1.846.262a1.882 1.882 0 0 1 1.846-1.517h54.847c.898 0 1.67.635 1.846 1.517l4.83 24.38c.024.12.035.242.035.365v24.424c0 .2.096.387.257.505l.769.565c.483.355.768.918.768 1.517v2.124c0 .36-.102.713-.296 1.016l-1.227 1.91a1.88 1.88 0 0 1-1.583.867h-61.155c-.121 0-.242-.011-.36-.035l-4.329-.845a1.88 1.88 0 0 1-1.325-1.012l-1.316-2.655a1.88 1.88 0 0 1 .254-2.053l1.122-1.324a.63.63 0 0 0 .15-.406V47.994c0-.123.011-.245.035-.366l4.832-24.38Z" fill="#333"/><path d="m125.141 43.009 1.959-13.002a1.255 1.255 0 0 1 1.241-1.068h46.106c.603 0 1.121.43 1.232 1.024l2.434 13.002a1.254 1.254 0 0 1-1.233 1.485h-50.498a1.255 1.255 0 0 1-1.241-1.441Z" fill="#FFE600"/><path d="M170.424 80.537h13.194v9.49h-13.194v-9.49Zm-50.713 0h13.196v9.49h-13.196v-9.49Z" fill="#fff"/><path fill-rule="evenodd" clip-rule="evenodd" d="M125.073 26.002a.84.84 0 0 0-.829.723l-2.846 19.608a.848.848 0 0 0 .194.675c.159.186.39.293.634.293h59.113a.834.834 0 0 0 .648-.309.854.854 0 0 0 .174-.7l-3.851-19.61a.84.84 0 0 0-.822-.68h-52.415Zm.724 1.69-2.601 17.919h57.124l-3.52-17.919h-51.003Z" fill="#333"/><path fill-rule="evenodd" clip-rule="evenodd" d="M190.216 48.595v28.623c0 2.158-1.715 3.887-3.851 3.887a12.211 12.211 0 0 1-2.736-.169h-17.85l-.014.001H119.71c-.213 0-.425-.017-.63-.048a165.27 165.27 0 0 1-2.383.048c-2.138 0-3.851-1.731-3.851-3.888V16.364c0-3.863 3.07-6.762 6.699-6.762h63.988c3.827 0 6.699 3.1 6.699 6.762v32.063a.846.846 0 0 1-.016.168ZM114.52 16.364c0-2.899 2.29-5.072 5.025-5.072h63.988c2.872 0 5.025 2.312 5.025 5.072v26.37a.847.847 0 0 0-.017.169v34.315c0 .928-.555 1.712-1.351 2.037.532-.709.847-1.59.847-2.545 0-1.592-.88-2.984-2.177-3.704v-25.37a.88.88 0 0 0-.016-.17l-5.192-25.525a.839.839 0 0 0-.82-.675h-3.816l-.032-.001h-53.257a.842.842 0 0 0-.827.706l-1.11 6.73a.678.678 0 0 0-.03.12l-3.213 18.666a.922.922 0 0 0-.012.149v25.468a4.239 4.239 0 0 0-1.19 6.114 2.176 2.176 0 0 1-1.825-2.169V16.364Zm69.666 31.358v10.89l-6.762.012H173.3c-2.806 0-5.023 2.238-5.023 5.071 0 2.834 2.217 5.072 5.023 5.072h10.886v3.731a4.125 4.125 0 0 0-.334-.013H119.71c-.169 0-.336.01-.501.03v-3.75h4.507l.008.001h6.536c2.652 0 4.825-2.238 5.022-4.838a.697.697 0 0 0 .003-.065c0-2.833-2.217-5.071-5.025-5.071h-11.051V47.711l2.954-17.168a.81.81 0 0 0 .049-.18l1.224-7.407h55.714l5.036 24.766Zm-49.068 26.454h.016l.016-.001h48.702c1.379 0 2.511 1.143 2.511 2.535 0 1.393-1.132 2.536-2.511 2.536H119.71c-1.379 0-2.511-1.142-2.511-2.535 0-1.393 1.132-2.535 2.511-2.535h15.408Zm-4.858-7.1h-5.695c.003-.059.003-.118.003-.178V60.92c0-.151-.008-.297-.022-.438h5.714c1.872 0 3.334 1.465 3.35 3.349-.152 1.78-1.657 3.245-3.35 3.245Zm-10.884-6.593h3.54c-.014.14-.022.286-.022.437v5.978c0 .06.002.119.003.178h-3.521v-6.593Zm50.575 3.212c0-1.9 1.468-3.38 3.349-3.38h3.737l1.962-.004a4.333 4.333 0 0 0-.003.162v6.603H173.3c-1.881 0-3.349-1.48-3.349-3.38Zm10.718 3.381h3.517v-6.774l-3.52.006a4.5 4.5 0 0 1 .003.165v6.603Z" fill="#333"/><path fill-rule="evenodd" clip-rule="evenodd" d="M118.703 80.087c0-.466.376-.845.838-.845h13.398c.462 0 .838.379.838.845v7.225c.195 2.05-1.415 3.593-3.348 3.594m-10.05-9.974h11.722v6.424c0 .03.002.062.005.093.106.966-.615 1.766-1.679 1.766h-8.206c-1.044 0-1.842-.805-1.842-1.86v-6.422Zm10.048 9.974h-8.206c-1.97 0-3.518-1.563-3.518-3.55v-7.269m50.74 0c0-.466.376-.845.838-.845h13.398c.462 0 .838.379.838.845v7.269c0 1.95-1.512 3.549-3.348 3.55m-10.05-9.974h11.722v6.424c0 1.09-.831 1.86-1.674 1.86h-8.205c-1.045 0-1.843-.806-1.843-1.86v-6.423Zm10.048 9.974h-8.205c-1.971 0-3.519-1.563-3.519-3.55v-7.269M133.647 33.9a.83.83 0 0 1 1.18-.087l4.856 4.225a.851.851 0 0 1 .088 1.193.833.833 0 0 1-1.182.088l-4.856-4.226a.85.85 0 0 1-.086-1.192Zm4.836-.99a.832.832 0 0 1 1.177-.13l10.216 8.283a.85.85 0 0 1 .129 1.189.832.832 0 0 1-1.177.13l-10.216-8.284a.85.85 0 0 1-.129-1.188Zm8.524 1.885a.83.83 0 0 1 1.17-.175l5.192 3.888a.85.85 0 0 1 .174 1.183.833.833 0 0 1-1.172.175l-5.191-3.889a.85.85 0 0 1-.173-1.182Zm3.493-2.333a.833.833 0 0 1 1.161-.234l13.063 8.79a.85.85 0 0 1 .231 1.172.832.832 0 0 1-1.161.235l-13.062-8.79a.85.85 0 0 1-.232-1.173Z" fill="#333"/><path fill-rule="evenodd" clip-rule="evenodd" d="M77.531 61.817h4.443s2.664-.11 4.26 2.949c1.596 3.06-1.07 3.356-1.07 3.356h-7.633v-6.305Z" fill="#fff"/><path fill-rule="evenodd" clip-rule="evenodd" d="M82.005 62.76h-3.533v4.423h6.616c.039-.008.099-.022.167-.045.148-.05.287-.123.384-.218.078-.076.15-.183.161-.39.013-.233-.05-.654-.4-1.327-.687-1.316-1.573-1.908-2.251-2.186a3.55 3.55 0 0 0-.86-.235 2.457 2.457 0 0 0-.234-.022h-.05Zm3.159 5.364.105.935h.004l.006-.001.015-.002.041-.006a3.266 3.266 0 0 0 .52-.128c.303-.102.73-.294 1.1-.656.39-.38.685-.921.725-1.631.038-.683-.165-1.446-.612-2.303-.91-1.744-2.153-2.626-3.205-3.057a5.433 5.433 0 0 0-1.32-.358 4.287 4.287 0 0 0-.582-.04H76.59v8.188h8.626l.053-.006-.105-.935Z" fill="#333"/><path fill-rule="evenodd" clip-rule="evenodd" d="M144.204 61.817h-4.444s-2.663-.11-4.259 2.949c-1.596 3.06 1.071 3.356 1.071 3.356h7.632v-6.305Z" fill="#fff"/><path fill-rule="evenodd" clip-rule="evenodd" d="M139.728 62.76h3.533v4.423h-6.616a1.466 1.466 0 0 1-.168-.045 1.026 1.026 0 0 1-.383-.218c-.078-.076-.15-.183-.161-.39-.013-.233.049-.654.4-1.327.686-1.316 1.573-1.908 2.252-2.186a3.478 3.478 0 0 1 1.092-.257h.051Zm-3.16 5.364c-.103.935-.103.935-.105.935h-.003l-.006-.001-.015-.002-.041-.006a3.223 3.223 0 0 1-.521-.128 2.886 2.886 0 0 1-1.099-.656 2.417 2.417 0 0 1-.725-1.631c-.038-.683.164-1.446.612-2.303.909-1.744 2.153-2.626 3.205-3.057a5.442 5.442 0 0 1 1.32-.358 4.264 4.264 0 0 1 .581-.04h5.372v8.188h-8.626l-.054-.006.105-.935Z" fill="#333"/><path d="M83.223 91.928a2.51 2.51 0 0 1 2.51-2.51h4.044a2.51 2.51 0 0 1 2.51 2.51v7.511a2.51 2.51 0 0 1-2.51 2.51h-4.044a2.51 2.51 0 0 1-2.51-2.51v-7.511Z" fill="#fff"/><path fill-rule="evenodd" clip-rule="evenodd" d="M82.281 91.93a3.451 3.451 0 0 1 3.451-3.452h4.045a3.451 3.451 0 0 1 3.45 3.451v7.512a3.451 3.451 0 0 1-3.45 3.451h-4.045a3.451 3.451 0 0 1-3.45-3.45v-7.513Zm3.451-1.57a1.57 1.57 0 0 0-1.569 1.57v7.511a1.57 1.57 0 0 0 1.57 1.569h4.044a1.57 1.57 0 0 0 1.569-1.569V91.93c0-.866-.703-1.568-1.57-1.568h-4.044Z" fill="#333"/><path d="M129.043 91.879a2.51 2.51 0 0 1 2.51-2.51h4.046a2.509 2.509 0 0 1 2.508 2.51v7.512a2.508 2.508 0 0 1-2.508 2.509h-4.046a2.51 2.51 0 0 1-2.51-2.51v-7.51Z" fill="#fff"/><path fill-rule="evenodd" clip-rule="evenodd" d="M128.102 91.88a3.45 3.45 0 0 1 3.449-3.45h4.046a3.45 3.45 0 0 1 3.451 3.45v7.512a3.45 3.45 0 0 1-3.451 3.451h-4.046a3.45 3.45 0 0 1-3.449-3.45V91.88Zm3.449-1.568c-.864 0-1.567.702-1.567 1.569v7.511c0 .867.703 1.569 1.567 1.569h4.046c.866 0 1.569-.702 1.569-1.569v-7.511a1.57 1.57 0 0 0-1.569-1.57h-4.046Z" fill="#333"/><path fill-rule="evenodd" clip-rule="evenodd" d="M110.546 49.105s-7.847-.026-11.792.883c-3.946.908-4.582.908-6.962 3.436-1.653 1.757-6.762 12.654-9.725 19.141a24.452 24.452 0 0 0-2.19 10.173v6.613a5.02 5.02 0 0 0 5.02 5.02h51.3a5.019 5.019 0 0 0 5.018-5.02v-6.41c0-3.642-.791-7.24-2.322-10.545l-8.785-18.972s-2.096-2.554-6.467-3.436c-4.368-.883-13.095-.883-13.095-.883Z" fill="#fff"/><path fill-rule="evenodd" clip-rule="evenodd" d="M110.549 48.164h-.352c-.225.002-.55.004-.953.01-.804.012-1.917.038-3.156.092-2.454.106-5.48.329-7.546.805l-.752.171c-1.503.342-2.578.586-3.492 1-1.122.507-1.979 1.25-3.191 2.537-.509.54-1.193 1.66-1.939 3.009-.768 1.388-1.662 3.133-2.591 5.016-1.86 3.767-3.884 8.123-5.367 11.37a25.394 25.394 0 0 0-2.274 10.563v6.614a5.96 5.96 0 0 0 5.96 5.96h51.3a5.96 5.96 0 0 0 5.96-5.96v-6.41a26.03 26.03 0 0 0-2.41-10.94l-8.834-19.081-.077-.093-.728.597.728-.597-.001-.002-.002-.001-.003-.004-.008-.01-.027-.032-.093-.103a7.156 7.156 0 0 0-.339-.344c-.295-.283-.731-.66-1.309-1.066-1.158-.81-2.894-1.73-5.224-2.2-2.267-.457-5.608-.68-8.335-.79a142.765 142.765 0 0 0-4.846-.11h-.099Zm18.762 5.78a4.836 4.836 0 0 0-.25-.253 9.223 9.223 0 0 0-1.088-.883c-.981-.688-2.48-1.486-4.517-1.898-2.104-.425-5.31-.644-8.038-.754a141.793 141.793 0 0 0-4.775-.11h-.185l-.252.001a109.359 109.359 0 0 0-4.036.099c-2.455.107-5.326.326-7.205.759l-.761.174c-1.543.352-2.403.548-3.13.877-.778.352-1.43.873-2.597 2.113-.318.338-.892 1.238-1.662 2.63-.747 1.352-1.626 3.066-2.55 4.938-1.849 3.742-3.862 8.078-5.343 11.32a23.513 23.513 0 0 0-2.104 9.78v6.614a4.078 4.078 0 0 0 4.078 4.078h51.3a4.08 4.08 0 0 0 4.079-4.079v-6.409c0-3.505-.763-6.969-2.236-10.15l-8.728-18.847Z" fill="#333"/><path d="M102.771 85.993c0-.693.562-1.255 1.255-1.255h13.897c.693 0 1.255.562 1.255 1.255v2.121c0 .693-.562 1.255-1.255 1.255h-13.897a1.255 1.255 0 0 1-1.255-1.255v-2.12Z" fill="#fff"/><path fill-rule="evenodd" clip-rule="evenodd" d="M101.83 85.993c0-1.213.983-2.196 2.196-2.196h13.897c1.212 0 2.195.983 2.195 2.196v2.121a2.196 2.196 0 0 1-2.195 2.196h-13.897a2.196 2.196 0 0 1-2.196-2.196v-2.121Zm2.196-.314a.314.314 0 0 0-.314.314v2.121c0 .173.141.314.314.314h13.897c.172 0 .312-.14.312-.314v-2.121a.313.313 0 0 0-.312-.314h-13.897Z" fill="#333"/><path fill-rule="evenodd" clip-rule="evenodd" d="M110.812 49.105s-7.492-.018-11.258.625c-3.767.644-4.374.644-6.645 2.434-1.571 1.238-5.25 8.888-7.37 13.49-.758 1.646.45 3.501 2.262 3.501h45.872c1.849 0 3.063-1.932 2.26-3.598l-6.447-13.393s-2.002-1.809-6.173-2.434c-4.17-.624-12.501-.624-12.501-.624Z" fill="#FFE600"/><path fill-rule="evenodd" clip-rule="evenodd" d="M110.802 52.87h-.306a138.062 138.062 0 0 0-3.779.069c-2.348.076-4.928.229-6.529.502l-.679.116c-1.569.267-2.156.366-2.64.53-.3.1-.614.237-1.575.99l.017-.01c.009.009-.23.276-.722 1.068-.528.849-1.152 1.972-1.823 3.256a164.881 164.881 0 0 0-2.952 6h41.862l-5.157-10.709a6.567 6.567 0 0 0-.29-.159c-.686-.357-1.835-.824-3.474-1.07-1.839-.275-4.762-.428-7.369-.507a179.223 179.223 0 0 0-4.227-.075h-.261l-.096-.001Zm18.684-.706 6.447 13.393c.803 1.666-.411 3.598-2.26 3.598H87.801c-1.812 0-3.02-1.855-2.262-3.5 2.12-4.603 5.799-12.253 7.37-13.49 2.117-1.67 2.788-1.783 5.92-2.312l.725-.123c3.766-.643 11.258-.624 11.258-.624s8.331 0 12.501.624c4.171.625 6.173 2.434 6.173 2.434Z" fill="#fff"/><path fill-rule="evenodd" clip-rule="evenodd" d="M110.813 48.164h-.088a92.495 92.495 0 0 0-1.153.007c-.766.009-1.827.027-3.008.065-2.342.076-5.215.233-7.169.566l-.72.122c-1.437.242-2.445.413-3.304.7-1.057.356-1.877.88-3.045 1.801-.541.426-1.144 1.278-1.733 2.225-.617.992-1.303 2.231-1.998 3.561-1.392 2.664-2.849 5.743-3.912 8.05-1.05 2.28.632 4.835 3.117 4.835h45.873c2.542 0 4.211-2.657 3.109-4.948l-6.529-13.558-.137-.124-.63.698.63-.698-.003-.003-.003-.003-.01-.008-.027-.024a5.72 5.72 0 0 0-.422-.324 10.584 10.584 0 0 0-1.255-.758c-1.105-.574-2.747-1.217-4.944-1.547-2.146-.321-5.322-.478-7.926-.556a184.501 184.501 0 0 0-4.618-.079h-.095Zm17.915 4.597 6.358 13.204a1.569 1.569 0 0 1-1.413 2.249H87.8c-1.137 0-1.872-1.156-1.407-2.166 1.058-2.296 2.5-5.343 3.87-7.965.686-1.312 1.347-2.504 1.928-3.439.609-.979 1.055-1.548 1.3-1.74 1.103-.87 1.723-1.24 2.479-1.495.708-.237 1.546-.38 3.016-.628l.726-.123c1.813-.31 4.569-.465 6.913-.541a141.732 141.732 0 0 1 4.102-.07h.446c.234.002.573.004.994.01.842.009 2.008.028 3.303.067 2.606.078 5.679.234 7.704.537 1.973.296 3.418.869 4.356 1.356.47.243.812.466 1.033.622.066.047.122.088.165.122Z" fill="#333"/><path fill-rule="evenodd" clip-rule="evenodd" d="M111.738 69.263c0-4.706 3.793-8.533 8.483-8.533 4.691 0 8.481 3.827 8.481 8.533h-1.881c0-3.679-2.961-6.65-6.6-6.65s-6.6 2.971-6.6 6.65h-1.883ZM84.35 74.836l.926.164-.926-.164v.003l-.002.005-.003.018-.009.057a11.387 11.387 0 0 0-.095.9c-.038.576-.049 1.368.068 2.207.227 1.633 1.002 3.775 3.377 4.45 1.903.541 3.705.775 5.027.876a24.757 24.757 0 0 0 2.04.07c.053 0 .094-.002.123-.003h.033l.01-.001h.004l-.036-.94.035.94.374-.015 3.908-3.959-14.653-5.739-.201 1.13Zm10.138 6.706-.162-.002a22.824 22.824 0 0 1-1.47-.065 23.885 23.885 0 0 1-4.655-.81c-1.274-.362-1.834-1.505-2.028-2.898a8.802 8.802 0 0 1-.072-1.433l9.756 3.82-1.369 1.388Zm42.834-6.706-.927.164.927-.164v.003l.002.005.003.018.008.057a10.518 10.518 0 0 1 .095.9c.038.576.05 1.368-.068 2.207-.226 1.633-1.002 3.775-3.377 4.45a25.827 25.827 0 0 1-5.026.876 24.768 24.768 0 0 1-2.041.07c-.052 0-.094-.002-.122-.003h-.034l-.009-.001h-.003s-.004 0 .035-.94l-.035.94-.375-.015-3.908-3.959 14.654-5.739.201 1.13Zm-10.139 6.706.162-.002a22.73 22.73 0 0 0 1.47-.065 23.881 23.881 0 0 0 4.656-.81c1.274-.362 1.833-1.505 2.027-2.898.07-.508.085-1.007.072-1.433l-9.755 3.82 1.368 1.388Z" fill="#333"/></svg>